<svg width="24" height="24" xmlns="http://www.w3.org/2000/svg"><g fill-rule="nonzero" fill="none"><path d="M24 18a2.667 2.667 0 0 1-2.667 2.667H2.667A2.667 2.667 0 0 1 0 18V6a2.667 2.667 0 0 1 2.667-2.667h18.666A2.667 2.667 0 0 1 24 6v12z" fill="#060"/><path d="M21.333 3.333H10v17.334h11.333A2.667 2.667 0 0 0 24 18V6a2.667 2.667 0 0 0-2.667-2.667" fill="#D52B1E"/><path d="M13.524 15.053l-1.955-1.955-.471.471.314.314-.264.395 1.584 1.056h-2.065V7.386c.88.126 1.682.494 2.332 1.041l-1.771.59.211.633 2-.667-.069-.205c.112.116.216.238.314.365l-1.869 1.247.185.276-.149.299L13.921 12l-2.07 1.035.298.597 2.499-1.25a4.646 4.646 0 0 1-1.124 2.671zm-4.19 1.56A4.64 4.64 0 0 1 7.605 16h1.729v.614zm-3.982-4.23l2.499 1.249.298-.597L6.079 12l1.41-.706.942.942.471-.472-.784-.784.031-.015-.298-.597-.23.115-.65-.65.975.163.109-.658-1.676-.28a4.658 4.658 0 0 1 2.955-1.672v7.948H7.268l1.584-1.056-.37-.555-2 1.333.009.014a4.642 4.642 0 0 1-1.139-2.688zm0-.765a4.647 4.647 0 0 1 .572-1.889l1.069 1.069-1.64.82zM10.667 16h1.728a4.642 4.642 0 0 1-1.728.614V16zm1.996-5.374l1.393-.929c.327.575.535 1.226.592 1.92l-1.985-.991zM10 6.667a5.333 5.333 0 1 0 0 10.667 5.334 5.334 0 0 0 0-10.667z" fill="#FFCC4D"/><path d="M7.333 8.667v4.666a2.667 2.667 0 0 0 5.334 0V8.667H7.333z" fill="#D52B1E"/><path d="M8 9.333v4a2 2 0 0 0 4 0v-4H8z" fill="#FFF"/><path fill="#829ACD" d="M11.333 12.667H8.667v-1.334h2.666z"/><path fill="#829ACD" d="M10.667 13.333H9.333v-2.666h1.334z"/><path fill="#039" d="M8.667 12.667H8v-1.334h.667zM10.667 12.667H9.333v-1.334h1.334zM12 12.667h-.667v-1.334H12zM10.667 14.667H9.333v-1.334h1.334zM10.667 9.333H9.333v1.334h1.334z"/></g></svg>
