<svg width="465" height="96" viewBox="0 0 465 96" fill="none" xmlns="http://www.w3.org/2000/svg">
<path d="M35.056 72.96C25.456 72.96 17.328 69.6 10.672 62.88C4.08 56.16 0.784 48 0.784 38.4C0.784 28.8 4.08 20.64 10.672 13.92C17.328 7.2 25.456 3.84 35.056 3.84C41.52 3.84 47.408 5.472 52.72 8.736C58.096 12 62.224 16.352 65.104 21.792L50.608 29.184C49.008 26.432 46.832 24.256 44.08 22.656C41.328 20.992 38.288 20.16 34.96 20.16C29.968 20.16 25.744 21.952 22.288 25.536C18.832 29.056 17.104 33.344 17.104 38.4C17.104 43.456 18.832 47.776 22.288 51.36C25.744 54.88 29.968 56.64 34.96 56.64C38.352 56.64 41.424 55.808 44.176 54.144C46.992 52.416 49.168 50.144 50.704 47.328L65.296 54.72C62.416 60.224 58.288 64.64 52.912 67.968C47.536 71.296 41.584 72.96 35.056 72.96ZM90.625 72.864C84.353 72.864 79.137 70.528 74.977 65.856C70.817 61.12 68.737 55.232 68.737 48.192C68.737 41.152 70.817 35.296 74.977 30.624C79.137 25.952 84.353 23.616 90.625 23.616C96.833 23.616 101.697 25.728 105.217 29.952V24.48H120.577V72H105.217V66.528C101.633 70.752 96.769 72.864 90.625 72.864ZM86.977 56.352C89.025 58.464 91.553 59.52 94.561 59.52C97.569 59.52 100.097 58.464 102.145 56.352C104.193 54.176 105.217 51.456 105.217 48.192C105.217 44.928 104.193 42.24 102.145 40.128C100.097 37.952 97.569 36.864 94.561 36.864C91.553 36.864 89.025 37.952 86.977 40.128C84.993 42.24 84.001 44.928 84.001 48.192C84.001 51.456 84.993 54.176 86.977 56.352ZM129.822 72V24.48H145.182V30.432C148.894 25.824 154.974 23.52 163.422 23.52V39.84C161.182 38.56 158.718 37.92 156.03 37.92C153.086 37.92 150.526 39.136 148.35 41.568C146.238 43.936 145.182 47.264 145.182 51.552V72H129.822ZM191.389 22.848C198.493 22.848 204.253 25.12 208.669 29.664C213.085 34.144 215.325 40.352 215.389 48.288C215.389 50.08 215.357 51.488 215.293 52.512H180.541C181.245 55.264 182.557 57.344 184.477 58.752C186.461 60.096 188.765 60.768 191.389 60.768C196.125 60.768 199.805 59.136 202.429 55.872L211.741 63.648C209.565 66.656 206.621 69.024 202.909 70.752C199.197 72.416 195.389 73.248 191.485 73.248C184.317 73.248 178.301 70.848 173.437 66.048C168.637 61.184 166.237 55.264 166.237 48.288C166.237 41.056 168.637 35.008 173.437 30.144C178.237 25.28 184.221 22.848 191.389 22.848ZM191.485 34.752C186.109 34.752 182.557 37.408 180.829 42.72H201.469C199.933 37.408 196.605 34.752 191.485 34.752ZM221.51 96V24.48H236.87V30.144C240.582 25.792 245.414 23.616 251.366 23.616C257.702 23.616 262.918 25.984 267.014 30.72C271.174 35.392 273.254 41.248 273.254 48.288C273.254 55.264 271.174 61.12 267.014 65.856C262.918 70.528 257.702 72.864 251.366 72.864C245.542 72.864 240.71 70.72 236.87 66.432V96H221.51ZM247.526 59.52C250.534 59.52 253.03 58.464 255.014 56.352C256.998 54.24 257.99 51.552 257.99 48.288C257.99 44.96 256.998 42.24 255.014 40.128C253.03 37.952 250.534 36.864 247.526 36.864C244.518 36.864 241.99 37.952 239.942 40.128C237.894 42.304 236.87 45.024 236.87 48.288C236.87 51.552 237.862 54.24 239.846 56.352C241.894 58.464 244.454 59.52 247.526 59.52ZM297.964 72.192C292.46 72.192 288.076 70.624 284.812 67.488C281.548 64.288 279.916 59.936 279.916 54.432V-5.72205e-06H295.276V51.456C295.276 53.696 295.916 55.36 297.196 56.448C298.476 57.536 300.044 58.08 301.9 58.08C302.86 58.08 303.724 57.984 304.492 57.792L306.028 71.136C303.02 71.84 300.332 72.192 297.964 72.192ZM330.156 72.864C323.884 72.864 318.668 70.528 314.508 65.856C310.348 61.12 308.268 55.232 308.268 48.192C308.268 41.152 310.348 35.296 314.508 30.624C318.668 25.952 323.884 23.616 330.156 23.616C336.364 23.616 341.228 25.728 344.748 29.952V24.48H360.108V72H344.748V66.528C341.164 70.752 336.3 72.864 330.156 72.864ZM326.508 56.352C328.556 58.464 331.084 59.52 334.092 59.52C337.1 59.52 339.628 58.464 341.676 56.352C343.724 54.176 344.748 51.456 344.748 48.192C344.748 44.928 343.724 42.24 341.676 40.128C339.628 37.952 337.1 36.864 334.092 36.864C331.084 36.864 328.556 37.952 326.508 40.128C324.524 42.24 323.532 44.928 323.532 48.192C323.532 51.456 324.524 54.176 326.508 56.352ZM392.019 73.344C384.979 73.344 378.931 70.912 373.875 66.048C368.819 61.12 366.291 55.168 366.291 48.192C366.291 41.216 368.819 35.232 373.875 30.24C378.931 25.248 384.979 22.752 392.019 22.752C396.179 22.752 400.083 23.712 403.731 25.632C407.443 27.488 410.483 30.016 412.851 33.216L400.659 42.144C398.739 39.008 395.859 37.376 392.019 37.248C388.947 37.184 386.387 38.208 384.339 40.32C382.291 42.432 381.267 45.088 381.267 48.288C381.267 51.424 382.291 54.016 384.339 56.064C386.387 58.048 388.947 59.072 392.019 59.136C393.811 59.2 395.475 58.784 397.011 57.888C398.611 56.992 399.859 55.776 400.755 54.24L412.755 63.072C410.387 66.272 407.379 68.8 403.731 70.656C400.083 72.448 396.179 73.344 392.019 73.344ZM440.389 22.848C447.493 22.848 453.253 25.12 457.669 29.664C462.085 34.144 464.325 40.352 464.389 48.288C464.389 50.08 464.357 51.488 464.293 52.512H429.541C430.245 55.264 431.557 57.344 433.477 58.752C435.461 60.096 437.765 60.768 440.389 60.768C445.125 60.768 448.805 59.136 451.429 55.872L460.741 63.648C458.565 66.656 455.621 69.024 451.909 70.752C448.197 72.416 444.389 73.248 440.485 73.248C433.317 73.248 427.301 70.848 422.437 66.048C417.637 61.184 415.237 55.264 415.237 48.288C415.237 41.056 417.637 35.008 422.437 30.144C427.237 25.28 433.221 22.848 440.389 22.848ZM440.485 34.752C435.109 34.752 431.557 37.408 429.829 42.72H450.469C448.933 37.408 445.605 34.752 440.485 34.752Z" fill="url(#paint0_linear_702_98)"/>
<defs>
<linearGradient id="paint0_linear_702_98" x1="-175.934" y1="87.0001" x2="488.636" y2="87" gradientUnits="userSpaceOnUse">
<stop stop-color="#244CB8"/>
<stop offset="1" stop-color="#38E2FE"/>
</linearGradient>
</defs>
</svg>
