<svg width="46" height="92" viewBox="0 0 46 92" fill="none" xmlns="http://www.w3.org/2000/svg">
<path d="M45.8736 21.8626H45.3681V8.01477C45.3681 6.96226 45.1608 5.92005 44.758 4.94765C44.3553 3.97526 43.7649 3.09172 43.0207 2.34748C42.2764 1.60324 41.3929 1.01287 40.4205 0.610089C39.4481 0.207309 38.4059 9.6042e-07 37.3534 0H8.01478C6.96227 -2.16089e-06 5.92006 0.207306 4.94766 0.610084C3.97526 1.01286 3.09172 1.60322 2.34748 2.34746C1.60324 3.0917 1.01287 3.97524 0.610092 4.94763C0.207311 5.92003 1.92081e-06 6.96224 0 8.01475V83.9852C-9.604e-07 85.0377 0.207305 86.08 0.610084 87.0524C1.01286 88.0247 1.60322 88.9083 2.34746 89.6525C3.0917 90.3968 3.97524 90.9871 4.94764 91.3899C5.92003 91.7927 6.96224 92 8.01476 92H37.3533C39.479 92 41.5176 91.1556 43.0206 89.6526C44.5237 88.1495 45.3681 86.1109 45.3681 83.9853V31.7198H45.8736V21.8626Z" fill="#3F3D56"/>
<path d="M37.6592 2.08517H33.8296C34.0057 2.51695 34.0729 2.98542 34.0253 3.4493C33.9777 3.91318 33.8168 4.35824 33.5567 4.74527C33.2966 5.1323 32.9453 5.44943 32.5338 5.66872C32.1222 5.888 31.6631 6.00272 31.1968 6.00275H14.3891C13.9228 6.00272 13.4636 5.88801 13.0521 5.66872C12.6405 5.44944 12.2892 5.13231 12.0291 4.74528C11.769 4.35824 11.6081 3.91318 11.5605 3.4493C11.5129 2.98542 11.5801 2.51695 11.7563 2.08517H8.17935C6.59194 2.08517 5.06955 2.71577 3.94708 3.83823C2.82461 4.9607 2.19401 6.48309 2.19401 8.0705V83.9295C2.19401 84.7155 2.34882 85.4938 2.64961 86.22C2.9504 86.9462 3.39128 87.606 3.94707 88.1618C4.50286 88.7176 5.16268 89.1585 5.88885 89.4592C6.61503 89.76 7.39334 89.9149 8.17934 89.9149H37.6592C38.4452 89.9149 39.2235 89.76 39.9497 89.4592C40.6759 89.1585 41.3357 88.7176 41.8915 88.1618C42.4473 87.606 42.8882 86.9462 43.189 86.22C43.4898 85.4938 43.6446 84.7155 43.6446 83.9295V8.0705C43.6446 7.2845 43.4898 6.50619 43.189 5.78002C42.8882 5.05384 42.4473 4.39402 41.8915 3.83823C41.3357 3.28244 40.6759 2.84157 39.9497 2.54077C39.2235 2.23998 38.4452 2.08517 37.6592 2.08517Z" fill="white"/>
<path d="M29.2699 23.3371H16.6379V26.3853H29.2699V23.3371Z" fill="#2E9EDD"/>
<path d="M29.9242 36.4352H16.0894V39.4834H29.9242V36.4352Z" fill="#E5E5E5"/>
<path d="M38.3741 42.9831H7.49619V46.0313H38.3741V42.9831Z" fill="#E5E5E5"/>
<path d="M38.3741 49.5311H7.49619V52.5793H38.3741V49.5311Z" fill="#E5E5E5"/>
<path d="M29.2699 64.0441H16.6379V68.6629H29.2699V64.0441Z" fill="#2E9EDD"/>
</svg>
