<svg width="33" height="15" viewBox="0 0 33 15" fill="none" xmlns="http://www.w3.org/2000/svg">
<path d="M3.49118 7.93169C2.56526 7.93169 1.67727 8.29951 1.02254 8.95423C0.36782 9.60895 0 10.497 0 11.4229C0 12.3488 0.36782 13.2368 1.02254 13.8915C1.67727 14.5462 2.56526 14.9141 3.49118 14.9141H29.5088C30.4347 14.9141 31.3227 14.5462 31.9775 13.8915C32.6322 13.2368 33 12.3488 33 11.4229C33 10.497 32.6322 9.60895 31.9775 8.95423C31.3227 8.29951 30.4347 7.93169 29.5088 7.93169H3.49118Z" fill="#E5E5E5"/>
<path d="M3.49118 8.63824C2.75265 8.63824 2.04436 8.93162 1.52214 9.45385C0.999922 9.97607 0.706543 10.6843 0.706543 11.4229C0.706543 12.1614 0.999922 12.8697 1.52214 13.3919C2.04436 13.9141 2.75265 14.2075 3.49118 14.2075H29.5088C30.2473 14.2075 30.9556 13.9141 31.4778 13.3919C32.0001 12.8697 32.2935 12.1614 32.2935 11.4229C32.2935 10.6843 32.0001 9.97607 31.4778 9.45385C30.9556 8.93162 30.2473 8.63824 29.5088 8.63824H3.49118Z" fill="white"/>
<path d="M9.23814 13.0879H4.0616C4.04516 13.088 4.02885 13.0849 4.01363 13.0787C3.9984 13.0725 3.98455 13.0633 3.97288 13.0517C3.96122 13.0401 3.95196 13.0263 3.94564 13.0112C3.93932 12.996 3.93607 12.9797 3.93607 12.9632C3.93607 12.9468 3.93932 12.9305 3.94564 12.9153C3.95196 12.9002 3.96122 12.8864 3.97288 12.8748C3.98455 12.8632 3.9984 12.854 4.01363 12.8478C4.02885 12.8416 4.04516 12.8385 4.0616 12.8386H9.23814C9.27106 12.8388 9.30256 12.852 9.32576 12.8754C9.34896 12.8987 9.36198 12.9303 9.36198 12.9632C9.36198 12.9962 9.34896 13.0278 9.32576 13.0511C9.30256 13.0745 9.27106 13.0877 9.23814 13.0879Z" fill="#2E9EDD"/>
<path d="M15.8049 13.1295H10.6283C10.6119 13.1296 10.5956 13.1265 10.5804 13.1202C10.5651 13.114 10.5513 13.1049 10.5396 13.0933C10.528 13.0817 10.5187 13.0679 10.5124 13.0527C10.5061 13.0375 10.5028 13.0212 10.5028 13.0048C10.5028 12.9884 10.5061 12.9721 10.5124 12.9569C10.5187 12.9417 10.528 12.9279 10.5396 12.9163C10.5513 12.9047 10.5651 12.8956 10.5804 12.8894C10.5956 12.8831 10.6119 12.88 10.6283 12.8801H15.8049C15.8213 12.88 15.8376 12.8831 15.8529 12.8894C15.8681 12.8956 15.8819 12.9047 15.8936 12.9163C15.9053 12.9279 15.9145 12.9417 15.9209 12.9569C15.9272 12.9721 15.9304 12.9884 15.9304 13.0048C15.9304 13.0212 15.9272 13.0375 15.9209 13.0527C15.9145 13.0679 15.9053 13.0817 15.8936 13.0933C15.8819 13.1049 15.8681 13.114 15.8529 13.1202C15.8376 13.1265 15.8213 13.1296 15.8049 13.1295Z" fill="#2E9EDD"/>
<path d="M22.3716 13.171H17.1951C17.1622 13.1708 17.1307 13.1576 17.1075 13.1342C17.0843 13.1109 17.0713 13.0793 17.0713 13.0464C17.0713 13.0134 17.0843 12.9819 17.1075 12.9585C17.1307 12.9351 17.1622 12.9219 17.1951 12.9217H22.3716C22.3881 12.9216 22.4044 12.9247 22.4196 12.9309C22.4348 12.9371 22.4487 12.9463 22.4604 12.9579C22.472 12.9695 22.4813 12.9833 22.4876 12.9985C22.4939 13.0136 22.4972 13.0299 22.4972 13.0464C22.4972 13.0628 22.4939 13.0791 22.4876 13.0943C22.4813 13.1095 22.472 13.1232 22.4604 13.1348C22.4487 13.1464 22.4348 13.1556 22.4196 13.1618C22.4044 13.168 22.3881 13.1712 22.3716 13.171Z" fill="#2E9EDD"/>
<path d="M28.9384 13.2126H23.7619C23.7289 13.2124 23.6975 13.1992 23.6743 13.1758C23.6511 13.1524 23.638 13.1208 23.638 13.0879C23.638 13.055 23.6511 13.0234 23.6743 13.0001C23.6975 12.9767 23.7289 12.9635 23.7619 12.9632H28.9384C28.9713 12.9635 29.0028 12.9767 29.026 13.0001C29.0492 13.0234 29.0623 13.055 29.0623 13.0879C29.0623 13.1208 29.0492 13.1524 29.026 13.1758C29.0028 13.1992 28.9713 13.2124 28.9384 13.2126Z" fill="#2E9EDD"/>
<path d="M6.63849 11.9404C7.16984 11.9404 7.60059 11.5097 7.60059 10.9783C7.60059 10.447 7.16984 10.0162 6.63849 10.0162C6.10714 10.0162 5.67639 10.447 5.67639 10.9783C5.67639 11.5097 6.10714 11.9404 6.63849 11.9404Z" fill="#2E9EDD"/>
<path d="M13.2449 11.9404C13.7763 11.9404 14.207 11.5097 14.207 10.9783C14.207 10.447 13.7763 10.0162 13.2449 10.0162C12.7136 10.0162 12.2828 10.447 12.2828 10.9783C12.2828 11.5097 12.7136 11.9404 13.2449 11.9404Z" fill="#2E9EDD"/>
<path d="M19.8513 11.9404C20.3827 11.9404 20.8134 11.5097 20.8134 10.9783C20.8134 10.447 20.3827 10.0162 19.8513 10.0162C19.32 10.0162 18.8892 10.447 18.8892 10.9783C18.8892 11.5097 19.32 11.9404 19.8513 11.9404Z" fill="#2E9EDD"/>
<path d="M26.4577 11.9404C26.9891 11.9404 27.4198 11.5097 27.4198 10.9783C27.4198 10.447 26.9891 10.0162 26.4577 10.0162C25.9264 10.0162 25.4956 10.447 25.4956 10.9783C25.4956 11.5097 25.9264 11.9404 26.4577 11.9404Z" fill="#2E9EDD"/>
<path d="M16.5068 6.28136C16.2003 6.40935 15.8804 6.26908 15.7463 5.94786C15.6101 5.62172 15.7373 5.29065 16.0487 5.16061C16.3602 5.03056 16.6743 5.17117 16.8127 5.50256C16.949 5.82899 16.8232 6.14923 16.5068 6.28136ZM15.9196 4.51867L15.6759 4.62043C15.615 4.64555 15.5469 4.64691 15.4851 4.62423C15.4233 4.60155 15.3722 4.55649 15.342 4.49796L15.33 4.47438C15.0677 4.00145 15.0377 3.42668 15.2412 2.76691C15.4297 2.17508 15.508 1.75884 15.3505 1.38175C15.1685 0.945763 14.7797 0.80919 14.284 1.00703C14.0917 1.08732 14.0305 1.08604 13.8792 1.23614C13.8463 1.26919 13.8071 1.29527 13.7639 1.31283C13.7207 1.33039 13.6744 1.33906 13.6277 1.33834C13.5826 1.33781 13.5381 1.32821 13.4968 1.3101C13.4555 1.292 13.4183 1.26576 13.3874 1.23296C13.3278 1.16975 13.2944 1.08628 13.2939 0.999401C13.2935 0.912526 13.3261 0.82872 13.385 0.76491C13.6393 0.49868 13.9461 0.288059 14.2859 0.146337C15.351 -0.298428 15.8872 0.358203 16.1326 0.945827C16.3726 1.52059 16.2376 2.05387 16.0207 2.74453C15.8389 3.31842 15.8495 3.74367 16.056 4.1665C16.0709 4.19846 16.0792 4.23311 16.0804 4.26836C16.0816 4.30362 16.0756 4.33874 16.0629 4.37164C16.0501 4.40453 16.0309 4.43451 16.0063 4.45977C15.9817 4.48504 15.9522 4.50507 15.9196 4.51867Z" fill="#2E9EDD"/>
</svg>
